<?xml version="1.0" encoding="UTF-8" standalone="no"?>
<!-- Created with Inkscape (http://www.inkscape.org/) -->

<svg
   width="24"
   height="24"
   viewBox="0 0 24 24"
   version="1.1"
   id="svg1"
   sodipodi:docname="friendly.svg"
   inkscape:version="1.4.3 (0d15f75042, 2025-12-25)"
   xmlns:inkscape="http://www.inkscape.org/namespaces/inkscape"
   xmlns:sodipodi="http://sodipodi.sourceforge.net/DTD/sodipodi-0.dtd"
   xmlns="http://www.w3.org/2000/svg"
   xmlns:svg="http://www.w3.org/2000/svg">
  <sodipodi:namedview
     id="namedview1"
     pagecolor="#ffffff"
     bordercolor="#666666"
     borderopacity="1.0"
     inkscape:showpageshadow="2"
     inkscape:pageopacity="0.0"
     inkscape:pagecheckerboard="false"
     inkscape:deskcolor="#d1d1d1"
     inkscape:document-units="px"
     showgrid="true"
     inkscape:zoom="27.874149"
     inkscape:cx="10.421843"
     inkscape:cy="13.973521"
     inkscape:window-width="960"
     inkscape:window-height="1008"
     inkscape:window-x="0"
     inkscape:window-y="0"
     inkscape:window-maximized="0"
     inkscape:current-layer="svg1">
    <inkscape:grid
       id="grid1"
       units="px"
       originx="0"
       originy="0"
       spacingx="1"
       spacingy="1"
       empcolor="#0099e5"
       empopacity="0.30196078"
       color="#0099e5"
       opacity="0.14901961"
       empspacing="5"
       enabled="true"
       visible="true" />
  </sodipodi:namedview>
  <defs
     id="defs1" />
  <path
     id="rect1"
     style="fill:#6cb7ef;fill-opacity:1;stroke-width:2.1;stroke-linecap:round;stroke-linejoin:round"
     d="m 7,2 h 10 c 3.324,0 5,1.676 5,5 v 10 c 0,3.324 -1.676,5 -5,5 H 7 C 6.2400245,22 4.7970573,21.980267 4,20.358755 3.2135972,21.980267 1.4271943,22 0,22 1.2938289,19.582122 2,20.239169 2,17 V 7 C 2,3.676 3.6760003,2 7,2 Z"
     sodipodi:nodetypes="ssssssccsss" />
  <g
     id="text1"
     style="opacity:1"
     transform="matrix(1.0199089,0,0,0.98047973,1.1099278e-4,0.54830301)">
    <path
       style="font-size:13.8177px;font-family:'Droid Sans';-inkscape-font-specification:'Droid Sans';baseline-shift:baseline;display:inline;overflow:visible;vector-effect:none;stroke:none;stroke-linecap:round;stroke-linejoin:round;enable-background:accumulate;stop-color:#000000;stop-opacity:1"
       d="m 16.474609,6.1289062 c -0.294526,0 -0.591782,0.1009831 -0.814453,0.2949219 -0.002,0.00194 -0.004,0.00389 -0.0059,0.00586 -0.261035,0.2349326 -0.355469,0.5810925 -0.355469,0.9277344 0,0.3434415 0.0967,0.6877762 0.34961,0.9238281 0.0019,0.00197 0.0039,0.00392 0.0059,0.00586 0.221705,0.2002495 0.522375,0.3085937 0.820312,0.3085937 0.295611,0 0.594577,-0.1099958 0.814453,-0.3085937 6.67e-4,1.4e-6 0.0013,1.4e-6 0.002,0 0.257149,-0.2330415 0.367187,-0.5840999 0.367187,-0.9296875 0,-0.1742503 -0.02791,-0.3439695 -0.09375,-0.5058594 C 17.508063,6.699294 17.42059,6.5544236 17.298828,6.4394531 17.186464,6.3294511 17.045972,6.2499129 16.898437,6.203125 16.762156,6.1545056 16.618444,6.1289063 16.474609,6.1289062 Z M 6.3339844,6.4453125 C 6.0793469,6.4451464 5.8728808,6.6516125 5.8730469,6.90625 v 9.863281 c -1.664e-4,0.254638 0.2062998,0.461104 0.4609375,0.460938 h 1.2558593 c 0.2546378,1.66e-4 0.461104,-0.2063 0.4609376,-0.460938 v -4.140625 h 3.5722657 v 4.140625 c -1.68e-4,0.253876 0.205109,0.460027 0.458984,0.460938 h 1.25586 c 0.254638,1.66e-4 0.461103,-0.2063 0.460937,-0.460938 V 6.90625 c 1.66e-4,-0.2546373 -0.2063,-0.4611034 -0.460937,-0.4609375 h -1.25586 C 11.828157,6.4462235 11.62288,6.6523741 11.623047,6.90625 v 3.695313 H 8.0507813 V 6.90625 C 8.0509474,6.6516124 7.8444813,6.4451463 7.5898437,6.4453125 Z m 9.5195316,3.3717757 c -0.253114,9.062e-4 -0.458078,0.2058708 -0.458985,0.4589848 v 6.493458 c -1.67e-4,0.253876 0.20511,0.460028 0.458985,0.460938 h 1.228515 c 0.254638,1.66e-4 0.461104,-0.2063 0.460938,-0.460938 V 10.276073 C 17.542058,10.022198 17.335907,9.8169207 17.082031,9.8170882 Z"
       id="path2"
       sodipodi:nodetypes="sccsccsccscccscccccccccccccccccccccccccccccc" />
  </g>
</svg>
