<svg
    xmlns="http://www.w3.org/2000/svg"
    viewBox="0 0 32 32"
    id="vector">
    <path
        id="path"
        d="M 21.185 12.538 L 21.139 12.538 C 20.234 12.533 19.504 11.796 19.509 10.893 C 19.511 10.458 19.685 10.043 19.993 9.738 C 20.302 9.438 20.712 9.269 21.14 9.267 C 22.043 9.264 22.778 9.995 22.78 10.899 C 22.783 11.788 22.074 12.516 21.185 12.538 Z M 22.564 20.619 C 22.584 20.94 22.502 21.258 22.33 21.529 C 22.064 21.914 21.625 22.143 21.158 22.143 L 21.113 22.145 C 20.629 22.154 20.174 21.918 19.903 21.515 C 19.735 21.243 19.658 20.925 19.681 20.606 L 19.718 14.924 C 19.647 14.155 20.211 13.474 20.98 13.403 C 21.037 13.398 21.095 13.395 21.152 13.398 C 21.64 13.387 22.101 13.624 22.377 14.027 C 22.545 14.299 22.622 14.617 22.598 14.934 L 22.564 20.619 Z M 17.793 20.473 C 17.818 20.831 17.731 21.187 17.543 21.491 C 17.282 21.891 16.836 22.134 16.359 22.138 L 16.313 22.139 C 15.816 22.144 15.353 21.891 15.087 21.472 C 14.903 21.168 14.821 20.812 14.851 20.458 L 14.869 17.187 L 11.607 17.168 L 11.587 20.437 C 11.615 20.794 11.527 21.153 11.337 21.458 C 11.064 21.86 10.611 22.101 10.126 22.103 C 9.622 22.112 9.151 21.858 8.883 21.433 C 8.699 21.129 8.617 20.773 8.648 20.417 L 8.703 11.166 C 8.676 10.811 8.762 10.457 8.949 10.152 C 9.223 9.749 9.679 9.505 10.166 9.501 C 10.666 9.494 11.134 9.744 11.405 10.164 C 11.59 10.471 11.673 10.829 11.642 11.186 L 11.624 14.363 L 14.887 14.381 L 14.904 11.203 C 14.88 10.848 14.967 10.494 15.151 10.191 C 15.424 9.778 15.889 9.533 16.384 9.54 C 16.881 9.533 17.343 9.783 17.609 10.202 C 17.793 10.507 17.876 10.863 17.847 11.218 L 17.793 20.473 Z M 16 3 C 8.822 2.999 3.002 8.816 3 15.994 C 3 19.506 4.419 22.868 6.938 25.316 C 6.851 25.662 6.693 25.989 6.474 26.271 C 6.106 26.793 5.613 27.216 5.041 27.502 C 5.799 27.914 6.647 28.128 7.509 28.124 C 8.458 28.094 9.399 27.948 10.311 27.689 C 12.083 28.556 14.029 29.004 16 29 C 23.179 28.999 28.999 23.178 28.998 15.999 C 28.996 8.82 23.178 3.001 16 3 Z"
        fill="#64cffc"
        fill-rule="evenodd"/>
</svg>
