<svg
    xmlns="http://www.w3.org/2000/svg"
    viewBox="0 0 32 32"
    id="vector">
    <path
        id="path"
        d="M 8.998 29.403 C 7.88 26.117 10.825 24.797 12.327 26.698 C 13.83 28.6 16.267 29.64 18.759 29.403 C 22.442 29.052 25.665 26.899 27.322 23.757 C 28.977 20.616 28.835 16.891 26.945 13.872 C 26.779 16.693 24.842 19.143 22.032 20.084 C 24.38 13.238 20.827 5.823 13.849 3 C 13.849 9.487 4.491 13.612 4.025 20.084 C 3.755 23.821 5.664 27.396 8.998 29.403"
        fill="#f37529"
        fill-rule="evenodd"/>
    <path
        id="path_1"
        d="M 24.719 21.418 C 24.719 25.843 21.131 29.43 16.707 29.43 C 12.282 29.43 8.695 25.843 8.695 21.418 C 8.695 14.956 16.877 10.801 16.877 10.801 C 16.877 10.801 24.719 15.112 24.719 21.418"
        fill="#fcbf10"
        fill-rule="evenodd"/>
    <path
        id="path_2"
        d="M 21.109 24.736 C 21.367 27.125 19.639 29.271 17.249 29.529 C 14.859 29.786 12.713 28.058 12.456 25.667 C 12.079 22.178 16.256 19.458 16.256 19.458 C 16.256 19.458 20.742 21.33 21.109 24.736"
        fill="#ffec29"
        fill-rule="evenodd"/>
</svg>
