<?xml version="1.0" encoding="UTF-8" standalone="no"?>
<svg
   width="24"
   height="24"
   viewBox="0 0 24 24"
   version="1.1"
   id="svg1"
   sodipodi:docname="hot.svg"
   inkscape:version="1.4.3 (0d15f75042, 2025-12-25)"
   xmlns:inkscape="http://www.inkscape.org/namespaces/inkscape"
   xmlns:sodipodi="http://sodipodi.sourceforge.net/DTD/sodipodi-0.dtd"
   xmlns="http://www.w3.org/2000/svg"
   xmlns:svg="http://www.w3.org/2000/svg">
  <defs
     id="defs1" />
  <sodipodi:namedview
     id="namedview1"
     pagecolor="#ffffff"
     bordercolor="#000000"
     borderopacity="0.25"
     inkscape:showpageshadow="2"
     inkscape:pageopacity="0.0"
     inkscape:pagecheckerboard="0"
     inkscape:deskcolor="#d1d1d1"
     showgrid="true"
     inkscape:zoom="23.540763"
     inkscape:cx="10.32252"
     inkscape:cy="15.48378"
     inkscape:window-width="1920"
     inkscape:window-height="1008"
     inkscape:window-x="0"
     inkscape:window-y="0"
     inkscape:window-maximized="1"
     inkscape:current-layer="svg1">
    <inkscape:grid
       id="grid1"
       units="px"
       originx="0"
       originy="0"
       spacingx="1"
       spacingy="1"
       empcolor="#0099e5"
       empopacity="0.30196078"
       color="#0099e5"
       opacity="0.14901961"
       empspacing="5"
       enabled="true"
       visible="true" />
  </sodipodi:namedview>
  <path
     d="m 14.734531,0.46727459 c -0.06559,0.16732274 -0.147093,0.30264148 -0.25556,0.44905043 -0.728607,1.04843188 -0.893276,2.28237208 -0.626492,3.49436268 0.188389,0.7824458 0.508464,1.5143611 0.882052,2.2346038 0.02217,0.042888 0.04434,0.085774 0.06718,0.1299598 0.311172,0.5981648 0.647103,1.1799294 1.0024,1.7563378 0.276696,0.4496069 0.539812,0.9061085 0.802478,1.3628816 0.03881,0.067299 0.03881,0.067299 0.07839,0.1359483 0.694642,1.2078 1.322128,2.425246 1.498079,3.799677 0.973208,-1.683781 1.358351,-3.624251 1.428724,-5.4458072 0.870961,1.2077834 1.420298,2.6425122 1.675006,4.0729152 0.0079,0.04448 0.01583,0.08896 0.02402,0.134786 0.468548,2.778381 -0.116307,5.806298 -1.910746,8.106378 -1.207179,1.511614 -2.82276,2.55913 -4.797886,3.007974 -0.03911,0.0089 -0.07822,0.01785 -0.118516,0.02705 -0.784345,0.16674 -1.490336,0.18242 -2.149807,0.181653 C 9.1649267,23.905647 7.1558143,22.565524 5.744506,21.318615 4.0972181,19.833265 3.0874903,17.728135 2.6646826,15.660617 2.3459839,14.11322 2.2323518,11.301322 4.4199362,8.3553263 4.5868859,8.1338876 4.7570992,7.9147136 4.9308655,7.6978395 l 0.09853,0.045762 c 0.044179,0.1767105 0.057483,0.3585267 0.086213,0.5377162 0.1336981,0.8640184 0.3144202,1.7572413 0.9483481,2.4368853 l 0.1477953,0.09152 c -8.08e-4,-0.04415 -0.00162,-0.0883 -0.00235,-0.133803 C 6.166032,7.9568548 6.8307669,5.6994499 8.8955178,3.6962759 10.149063,2.5042057 12.857956,0.46727459 14.734534,0.46727459 Z"
     fill="#ec6f59"
     id="path1"
     style="stroke-width:0.0474818"
     sodipodi:nodetypes="sccccccccccccscccccccccccccs" />
  <path
     d="m 11.706064,5.1282349 c 9.5e-4,0.044058 0.0018,0.088129 0.003,0.1335267 0.03222,0.6465595 0.191527,1.2518957 0.362252,1.8767455 0.03125,0.1164772 0.05978,0.2335933 0.08735,0.3508849 0.339476,1.3802375 1.414659,2.604189 2.31493,3.695769 0.318686,0.387014 0.632656,0.777195 0.938975,1.172964 0.02967,0.03833 0.05935,0.07667 0.08994,0.116152 0.886906,1.160076 1.602263,2.549505 1.603754,4.003922 0.0011,0.255406 -0.0014,0.238895 2.66e-4,0.761659 -3.99e-4,0.407942 -0.0076,0.803528 -0.07661,1.206594 0.977437,-1.363448 1.4108,-2.762562 1.684731,-4.375989 0.709775,0.66797 0.824287,2.271746 0.833944,3.178934 -0.01309,1.508568 -0.576745,2.92512 -1.642613,4.05096 -0.04474,0.04734 -0.08948,0.09466 -0.135573,0.143438 -1.253184,1.249124 -3.186216,2.077489 -5.007877,2.155294 -0.6308,0.01464 -1.036719,0.07281 -1.835459,-0.215772 C 9.2583979,22.780444 7.7933676,21.788026 6.7866332,20.349052 6.7236965,20.256474 6.7236965,20.256474 6.6594877,20.162011 5.6654074,18.64203 5.2050909,16.651336 5.5907354,14.886745 5.8421751,13.976154 6.2213614,13.097854 6.8540227,12.358117 6.99594,12.309167 7.3709124,14.437035 9.0104804,15.465703 8.9992944,15.430673 8.9881024,15.395633 8.9765724,15.359549 8.1536906,12.765793 7.8731102,9.7815612 9.272936,7.3092854 9.6932688,6.5964066 10.72722,5.1282282 11.706061,5.1282282 Z"
     fill="#f9d05b"
     id="path2"
     style="fill:#fcc010;fill-opacity:1;stroke-width:0.0653745"
     sodipodi:nodetypes="cccccccccccccccsccccccccc" />
  <path
     id="path_2"
     d="m 16.030334,19.178776 c 0.220687,1.979301 -1.299261,3.943922 -3.343618,4.157676 -2.044356,0.212925 -3.8381493,-1.405379 -4.0579819,-3.386337 -0.3224773,-2.890657 2.9993309,-5.164931 2.9993309,-5.164931 0,0 4.088344,1.571701 4.402269,4.393592"
     fill="#ffed28"
     sodipodi:nodetypes="ccccc"
     style="stroke-width:0.980802" />
</svg>
