<?xml version="1.0" encoding="UTF-8" standalone="no"?>
<!-- Created with Inkscape (http://www.inkscape.org/) -->

<svg
   width="24"
   height="24"
   viewBox="0 0 24 24"
   version="1.1"
   id="svg1"
   sodipodi:docname="instagram.svg"
   inkscape:version="1.4.3 (0d15f75042, 2025-12-25)"
   xmlns:inkscape="http://www.inkscape.org/namespaces/inkscape"
   xmlns:sodipodi="http://sodipodi.sourceforge.net/DTD/sodipodi-0.dtd"
   xmlns="http://www.w3.org/2000/svg"
   xmlns:svg="http://www.w3.org/2000/svg"
   xmlns:rdf="http://www.w3.org/1999/02/22-rdf-syntax-ns#"
   xmlns:cc="http://creativecommons.org/ns#">
  <sodipodi:namedview
     id="namedview1"
     pagecolor="#ffffff"
     bordercolor="#666666"
     borderopacity="1.0"
     inkscape:showpageshadow="2"
     inkscape:pageopacity="0.0"
     inkscape:pagecheckerboard="false"
     inkscape:deskcolor="#d1d1d1"
     inkscape:document-units="px"
     showgrid="true"
     inkscape:zoom="18.34"
     inkscape:cx="11.450382"
     inkscape:cy="11.804798"
     inkscape:window-width="1440"
     inkscape:window-height="842"
     inkscape:window-x="0"
     inkscape:window-y="0"
     inkscape:window-maximized="0"
     inkscape:current-layer="layer1">
    <inkscape:grid
       id="grid1"
       units="px"
       originx="0"
       originy="0"
       spacingx="1"
       spacingy="1"
       empcolor="#0099e5"
       empopacity="0.30196078"
       color="#0099e5"
       opacity="0.14901961"
       empspacing="5"
       enabled="true"
       visible="true" />
  </sodipodi:namedview>
  <defs
     id="defs1" />
  <g
     inkscape:label="Ebene 1"
     inkscape:groupmode="layer"
     id="layer1">
    <path
       d="M 12.311,2 C 9.5109907,2 9.1604167,2.0114567 8.0605767,2.061866 7.2047637,2.079051 6.358116,2.2417357 5.557295,2.5419003 4.8721863,2.8054037 4.2500893,3.2109697 3.7311023,3.7311023 3.2109697,4.2500893 2.8065493,4.8721863 2.5419003,5.557295 2.2417357,6.3592617 2.079051,7.2047637 2.061866,8.0605767 2.0114567,9.1604167 2,9.5109907 2,12.311 c 0,2.800009 0.011457,3.150583 0.061866,4.250423 0.017185,0.855813 0.1798697,1.702461 0.4800343,2.503282 0.2635034,0.685109 0.6690694,1.307206 1.189202,1.827338 0.518987,0.518987 1.141084,0.924553 1.8261927,1.189202 0.8019667,0.300165 1.6474687,0.461704 2.5032817,0.478889 1.09984,0.05041 1.450414,0.06187 4.2504233,0.06187 2.800009,0 3.150583,-0.01146 4.250423,-0.06187 0.855813,-0.01719 1.702461,-0.17987 2.503282,-0.480034 0.685109,-0.263504 1.307206,-0.66907 1.827338,-1.189202 0.518987,-0.518987 0.924553,-1.141084 1.189202,-1.826193 0.300165,-0.801967 0.461704,-1.647469 0.478889,-2.503282 0.05041,-1.09984 0.06187,-1.450414 0.06187,-4.250423 0,-2.8000093 -0.01146,-3.1505833 -0.06187,-4.2504233 C 22.542949,7.2047637 22.380264,6.358116 22.0801,5.557295 21.816596,4.8721863 21.41103,4.251235 20.890898,3.7311023 20.371911,3.2121153 19.749814,2.8065493 19.064705,2.5419003 18.262738,2.2417357 17.417236,2.079051 16.561423,2.0630117 15.461583,2.0114567 15.111009,2 12.311,2 Z m 5.503783,6.0445373 c 0.683963,0 1.23732,-0.5545026 1.23732,-1.23732 0,-0.683963 -0.553357,-1.23732 -1.23732,-1.23732 -0.682818,0 -1.23732,0.553357 -1.23732,1.23732 0,0.6828174 0.554502,1.23732 1.23732,1.23732 z M 9.3700737,7.908203 C 10.24078,7.3262043 11.263861,7.0157287 12.311,7.0157287 c 1.404587,0 2.751891,0.5579396 3.744039,1.5512326 0.993293,0.993293 1.551232,2.3394517 1.551232,3.7440387 0,1.047139 -0.310475,2.071365 -0.892474,2.942072 -0.581999,0.870707 -1.40917,1.548941 -2.376113,1.949925 -0.968088,0.400983 -2.032412,0.505239 -3.05893,0.30131 C 10.251091,17.300378 9.3082077,16.795139 8.5669613,16.055039 7.8268607,15.314938 7.3227673,14.370909 7.117693,13.344391 6.9137643,12.316728 7.0191657,11.252404 7.4190033,10.285461 7.8199867,9.317373 8.499367,8.4902017 9.3700737,7.908203 Z m 1.0311003,7.261235 C 10.967133,15.547508 11.63162,15.748 12.311,15.748 c 0.911951,0 1.786094,-0.362031 2.431105,-1.007041 0.643864,-0.643865 1.005895,-1.518008 1.005895,-2.428813 0,-0.680526 -0.201637,-1.345013 -0.578562,-1.910972 C 14.791368,9.83636 14.255196,9.3952783 13.626225,9.135212 12.9984,8.8751457 12.307563,8.8075513 11.640785,8.9404487 10.974007,9.0722003 10.362221,9.399861 9.881041,9.8798953 9.399861,10.361075 9.073346,10.974007 8.9404487,11.640785 c -0.1328974,0.666778 -0.064157,1.357615 0.1947633,1.98544 0.261212,0.627826 0.701148,1.165143 1.267107,1.543213 z"
       id="path1"
       style="stroke-width:1.14567" />
  </g>
  <metadata
     id="metadata1">
    <rdf:RDF>
      <cc:License
         rdf:about="http://creativecommons.org/publicdomain/zero/1.0/">
        <cc:permits
           rdf:resource="http://creativecommons.org/ns#Reproduction" />
        <cc:permits
           rdf:resource="http://creativecommons.org/ns#Distribution" />
        <cc:permits
           rdf:resource="http://creativecommons.org/ns#DerivativeWorks" />
      </cc:License>
      <cc:Work
         rdf:about="">
        <cc:license
           rdf:resource="http://creativecommons.org/publicdomain/zero/1.0/" />
      </cc:Work>
    </rdf:RDF>
  </metadata>
</svg>
