<svg
    xmlns="http://www.w3.org/2000/svg"
    viewBox="0 0 32 32"
    id="vector">
    <path
        id="path"
        d="M 20.951 20.359 C 19.305 21.276 17.283 20.658 16.324 18.943 C 16.236 18.816 16.262 18.636 16.38 18.543 C 16.391 18.534 16.403 18.525 16.415 18.519 L 21.548 15.531 C 22.067 15.227 22.714 15.438 22.993 15.999 C 23.096 16.208 23.138 16.446 23.113 16.681 C 23.009 18.223 22.195 19.604 20.95 20.359 L 20.951 20.359 Z M 18.284 24.411 C 17.169 24.809 15.788 24.656 15.594 24.166 C 15.593 24.155 15.618 24.146 15.662 24.138 C 17.101 23.99 18.477 23.418 19.639 22.482 C 19.693 22.428 19.764 22.472 19.84 22.529 C 20.181 22.785 19.398 24.012 18.284 24.411 Z M 14.882 19.37 C 14.688 20.916 13.466 22.068 12.026 22.06 C 10.529 21.993 9.201 20.998 8.617 19.504 C 8.494 19.235 8.596 18.91 8.845 18.778 C 8.913 18.741 8.989 18.722 9.067 18.722 L 14.391 18.698 C 14.669 18.698 14.896 18.941 14.896 19.243 C 14.896 19.286 14.891 19.329 14.882 19.37 Z M 25.752 20.189 C 27.414 16.499 27.181 12.138 25.137 8.681 C 25.547 7.645 25.746 6.525 25.719 5.397 C 25.663 4.485 25.292 3.628 24.677 3 C 24.677 3 24.378 3.467 23.017 3.898 C 22.224 4.175 21.398 4.32 20.564 4.329 C 17.459 2.745 13.846 2.838 10.817 4.584 C 10.043 4.547 9.275 4.403 8.537 4.153 C 7.175 3.724 6.875 3.255 6.875 3.255 C 6.262 3.884 5.891 4.74 5.836 5.652 C 5.812 6.816 6.024 7.971 6.456 9.036 C 6.456 9.036 6.491 9.023 6.539 9.003 C 3.454 14.615 5.153 21.874 10.335 25.214 C 15.436 28.504 22.03 26.775 25.175 21.32 C 25.738 22.074 25.863 23.108 25.497 23.992 C 24.853 25.362 23.718 26.385 22.358 26.825 C 22.374 26.438 22.368 26.05 22.339 25.665 C 22.33 25.577 22.256 25.514 22.175 25.524 C 22.132 25.529 22.093 25.554 22.068 25.594 C 21.433 26.605 20.691 27.532 19.859 28.357 C 19.798 28.416 19.793 28.517 19.848 28.583 C 19.874 28.614 19.911 28.633 19.951 28.636 C 20.76 28.679 22.751 28.795 24.194 28.998 C 24.275 29.011 24.35 28.949 24.36 28.862 C 24.368 28.801 24.343 28.741 24.296 28.707 C 23.945 28.45 23.466 28.128 23.068 27.865 C 24.615 27.231 25.879 25.983 26.604 24.374 C 27.162 22.924 26.821 21.251 25.752 20.189 Z"
        fill="#be58d3"
        fill-rule="evenodd"/>
</svg>
