<?xml version="1.0" encoding="UTF-8" standalone="no"?>
<svg
   version="1.1"
   width="24"
   height="24"
   id="svg47"
   sodipodi:docname="looking.svg"
   inkscape:version="1.4.3 (0d15f75042, 2025-12-25)"
   xml:space="preserve"
   xmlns:inkscape="http://www.inkscape.org/namespaces/inkscape"
   xmlns:sodipodi="http://sodipodi.sourceforge.net/DTD/sodipodi-0.dtd"
   xmlns:xlink="http://www.w3.org/1999/xlink"
   xmlns="http://www.w3.org/2000/svg"
   xmlns:svg="http://www.w3.org/2000/svg"><defs
     id="defs47"><linearGradient
       id="linearGradient1"
       inkscape:collect="always"><stop
         style="stop-color:#dea6e6;stop-opacity:1;"
         offset="0"
         id="stop1" /><stop
         style="stop-color:#924e9f;stop-opacity:1;"
         offset="1"
         id="stop2" /></linearGradient><radialGradient
       inkscape:collect="always"
       xlink:href="#linearGradient1"
       id="radialGradient1"
       cx="12.097638"
       cy="15.416768"
       fx="12.097638"
       fy="15.416768"
       r="9"
       gradientTransform="matrix(1,0,0,1.0000018,0,-2.1048218e-5)"
       gradientUnits="userSpaceOnUse" /></defs><sodipodi:namedview
     id="namedview47"
     pagecolor="#ffffff"
     bordercolor="#000000"
     borderopacity="0.25"
     inkscape:showpageshadow="2"
     inkscape:pageopacity="0.0"
     inkscape:pagecheckerboard="0"
     inkscape:deskcolor="#d1d1d1"
     inkscape:zoom="20.487179"
     inkscape:cx="18.645808"
     inkscape:cy="12.959324"
     inkscape:window-width="1920"
     inkscape:window-height="1008"
     inkscape:window-x="0"
     inkscape:window-y="0"
     inkscape:window-maximized="1"
     inkscape:current-layer="svg47" /><path
     d="M 0.50547165,0 C 0.68311295,0.12983475 0.84347902,0.26611765 1.0014474,0.42054381 2.3928939,1.7628175 4.3951783,2.8710132 6.3402049,2.8295089 6.6178383,2.8120123 6.8024771,2.711795 7.0347465,2.5647165 9.1491202,1.2277398 12.175171,1.0668817 14.53711,1.6368166 c 0.992408,0.2501474 1.956697,0.6133278 2.846588,1.1348393 0.150653,0.067479 0.316672,0.048129 0.478584,0.047189 0.03869,-2.153e-4 0.07738,-4.337e-4 0.11725,-6.571e-4 0.337245,-0.00542 0.652788,-0.044364 0.97998,-0.1267076 0.02998,-0.00743 0.05995,-0.014869 0.09084,-0.022529 1.532547,-0.3906886 2.895434,-1.2919202 4.064127,-2.36135344 0.03532,-0.0320184 0.07064,-0.0640368 0.107032,-0.0970255 C 23.298393,0.14067444 23.375033,0.07052734 23.451367,0 c 0.357359,0.29322391 0.447723,1.149574 0.508642,1.5825965 0.178312,1.7086113 -0.238297,3.2840745 -1.277983,4.6332852 -0.139699,0.1768203 -0.28713,0.3458687 -0.437845,0.5128193 -0.02119,0.023491 -0.04238,0.046981 -0.06422,0.071183 -0.141664,0.1540842 -0.291282,0.2938993 -0.450474,0.4286637 0.04899,0.1289422 0.102171,0.2542864 0.160403,0.37909 1.308204,2.8394983 1.514991,5.9911493 0.485302,8.9665943 -0.361309,1.005355 -0.842313,1.947489 -1.469212,2.804427 -0.01771,0.02423 -0.03543,0.04846 -0.05368,0.07343 -0.203785,0.276569 -0.417652,0.539246 -0.647441,0.793495 -0.07465,0.08288 -0.146822,0.167179 -0.218305,0.252927 -1.703405,2.008472 -4.388218,3.228543 -6.941321,3.455669 -0.07014,0.0064 -0.07014,0.0064 -0.141686,0.01292 C 10.228486,24.173953 7.4512653,23.404652 5.3342144,21.68565 5.3021264,21.66008 5.2700384,21.6345 5.2369784,21.60815 5.0423585,21.451178 4.8569178,21.285933 4.6741828,21.114604 4.595822,21.041551 4.516251,20.970477 4.4358453,20.899826 4.1522334,20.645581 3.8911272,20.367198 3.6497706,20.070754 3.6332441,20.050872 3.6167177,20.030991 3.5996905,20.010507 1.6830531,17.699236 0.79481199,14.672339 1.0275658,11.658704 1.1641958,10.107548 1.6218629,8.6531153 2.3022139,7.2669971 2.278528,7.2450185 2.278528,7.2450185 2.2543636,7.2225957 1.7044878,6.7097184 1.2463542,6.177214 0.84236082,5.5367597 0.81813814,5.4989917 0.79391545,5.4612241 0.76895875,5.4223118 0.23423464,4.5400153 -0.0057135,3.490647 1.37895e-4,2.4607821 2.1650247e-4,2.4147037 2.1650247e-4,2.4147037 2.9885316e-4,2.3676945 0.0035891,1.5999747 0.07805224,0.65855819 0.50547165,0 Z"
     fill="#924e9f"
     id="path1"
     style="stroke:none;stroke-width:0.0379375;fill:url(#radialGradient1)" /><path
     d="M 0.50547165,0 C 0.68311295,0.12983475 0.84347902,0.26611765 1.0014474,0.42054381 2.365163,1.7360666 4.2481036,2.7582295 6.1366677,2.8284575 c 0.041666,0.00166 0.083332,0.00332 0.1262605,0.00503 0.1021788,0.00405 0.2043607,0.00798 0.3065485,0.01179 C 6.414873,2.9786021 6.2507313,3.0880767 6.0805195,3.1985361 5.8095326,3.3766991 5.5490125,3.5625014 5.2967843,3.7680726 c -0.027015,0.0213 -0.054031,0.0426 -0.081865,0.064546 C 4.8949612,4.0916354 4.6086683,4.383683 4.3209534,4.6792821 4.2354637,4.7669286 4.1493929,4.8539407 4.0632786,4.9409394 3.5917197,5.4215759 3.1847625,5.9358412 2.8286032,6.5124213 2.8085212,6.5445018 2.7884392,6.576582 2.7677486,6.6096345 2.6271508,6.836143 2.4945373,7.0652441 2.3770782,7.3054468 2.3151818,7.2511396 2.2533294,7.196779 2.1916721,7.1421858 2.1432887,7.0996005 2.0945866,7.0573911 2.0454529,7.015722 1.2194004,6.3022036 0.64207658,5.3401905 0.28087887,4.3063686 0.26510035,4.2612156 0.24932183,4.2160629 0.23306517,4.1695419 0.05302429,3.6105487 -0.00318709,3.0459922 1.37895e-4,2.4607821 2.1650247e-4,2.4147037 2.1650247e-4,2.4147037 2.9885316e-4,2.3676945 0.0035891,1.5999747 0.07805224,0.65855819 0.50547165,0 Z"
     fill="#4b1258"
     id="path2"
     style="stroke:none;stroke-width:0.0379375" /><path
     d="m 23.451367,0 c 0.357358,0.29322391 0.447722,1.149574 0.508642,1.5825965 0.178311,1.7086113 -0.238298,3.2840745 -1.277984,4.6332852 -0.139698,0.1768203 -0.28713,0.3458687 -0.437844,0.5128193 -0.02119,0.023491 -0.04238,0.046981 -0.06422,0.071183 -0.296214,0.3221829 -0.296214,0.3221829 -0.450474,0.4286637 -0.03706,0 -0.07412,0 -0.112296,0 -0.02396,-0.045574 -0.02396,-0.045574 -0.0484,-0.092069 C 20.90612,5.9084312 19.972715,4.7394563 18.884647,3.8834217 18.849375,3.8542284 18.814102,3.8250352 18.777761,3.7949573 18.499206,3.5675786 18.207532,3.3668821 17.907327,3.1707877 17.752182,3.0692543 17.602849,2.967821 17.462226,2.8452793 c 0.02275,-5.606e-4 0.0455,-0.00112 0.06893,-0.0017 2.149931,-0.058865 3.999358,-1.0865518 5.583319,-2.53598244 0.03532,-0.0320184 0.07064,-0.0640368 0.107032,-0.0970255 C 23.298393,0.14067444 23.375032,0.07052734 23.451367,0 Z"
     fill="#4b1258"
     id="path3"
     style="stroke:none;stroke-width:0.0379375" /><path
     d="m 7.3181193,17.80222 c 0.2180368,0.04733 0.4316084,0.103201 0.645951,0.165702 0.9262236,0.26785 1.8777195,0.464077 2.8352367,0.564843 0.04677,0.0054 0.04677,0.0054 0.09448,0.01081 1.772568,0.188313 3.684847,-0.147304 5.368907,-0.724274 0.07656,-0.01709 0.07656,-0.01709 0.18886,0.02136 -0.38541,0.437326 -0.768501,0.84487 -1.23526,1.191941 -0.02112,0.01592 -0.04224,0.03183 -0.06401,0.04823 -1.198253,0.89429 -2.673486,1.277932 -4.13795,1.046441 -0.933803,-0.165514 -1.8258729,-0.572378 -2.5732578,-1.171571 -0.030869,-0.02455 -0.030869,-0.02455 -0.062362,-0.0496 -0.2670985,-0.21538 -0.5105958,-0.454981 -0.7517863,-0.700168 -0.039555,-0.04009 -0.039555,-0.04009 -0.079909,-0.08098 -0.024392,-0.02522 -0.048783,-0.05044 -0.073914,-0.07642 -0.021798,-0.02248 -0.043596,-0.04496 -0.066054,-0.06811 -0.051506,-0.06286 -0.051506,-0.06286 -0.088938,-0.178205 z"
     fill="#22032e"
     id="path4"
     style="stroke:none;stroke-width:0.0379375" /><path
     d="m 17.705535,11.227318 c 0.09678,0.07953 0.125003,0.108121 0.141248,0.231599 0.01023,0.243399 0.01023,0.243399 -0.08744,0.361969 -0.280801,0.153422 -0.546467,0.14696 -0.8586,0.151395 -0.843719,0.02492 -1.628298,0.305786 -2.28336,0.869925 0.02538,5.45e-4 0.05076,0.0011 0.07691,0.0017 0.342204,0.01801 0.613378,0.109449 0.851873,0.37083 0.31462,0.406057 0.427688,0.852384 0.430469,1.362562 2.1e-4,0.03211 4.17e-4,0.06422 6.31e-4,0.09731 -0.0058,0.518337 -0.158697,0.97223 -0.498946,1.358976 -0.202828,0.197925 -0.395869,0.275631 -0.671439,0.28597 -0.276641,-0.0085 -0.453604,-0.09613 -0.659741,-0.281164 -0.369455,-0.403 -0.49784,-0.96731 -0.502994,-1.504345 0.02241,-0.354053 0.08859,-0.673511 0.224593,-0.999693 -0.04198,0.01933 -0.04198,0.01933 -0.08481,0.03905 -0.134343,0.04968 -0.226784,0.03201 -0.364378,-6.01e-4 -0.05284,-0.108549 -0.04728,-0.18724 -0.03743,-0.307598 0.04971,-0.08906 0.04971,-0.08906 0.121654,-0.175427 0.0275,-0.03306 0.05501,-0.06612 0.08334,-0.100179 0.03117,-0.03593 0.06234,-0.07187 0.09446,-0.108891 0.01644,-0.01941 0.03288,-0.03882 0.04982,-0.05882 0.8138,-0.95927 2.662702,-2.455295 3.97413,-1.594518 z"
     fill="#240230"
     id="path5"
     style="stroke:none;stroke-width:0.0379375" /><path
     d="m 9.3267334,11.920014 c 0.1061734,0.08725 0.2095154,0.176973 0.3121781,0.268547 0.01921,0.0171 0.038421,0.0342 0.058214,0.05182 0.8968025,0.804879 0.8968025,0.804879 0.9243795,1.137721 -0.0094,0.117753 -0.0094,0.117753 -0.04679,0.192249 -0.125171,0.06831 -0.237066,0.02702 -0.374322,0.0024 -0.02471,0 -0.04941,0 -0.07486,0 0.01491,0.0316 0.01491,0.0316 0.03012,0.06383 0.236772,0.545886 0.244373,1.156074 0.08057,1.725131 -0.139341,0.367318 -0.3668557,0.729491 -0.7217377,0.907773 -0.2478529,0.08214 -0.5355785,0.07878 -0.7692595,-0.04371 C 8.4087119,16.000409 8.1676045,15.623161 8.0667621,15.226089 7.9554941,14.558111 7.9884984,13.888421 8.371483,13.31682 c 0.1738627,-0.225112 0.385068,-0.413145 0.6701228,-0.451484 0.1117613,-0.01 0.2232308,-0.01773 0.3352808,-0.02313 -0.7335515,-0.572222 -1.4874932,-0.862074 -2.4095471,-0.868423 -0.557045,-0.0073 -0.557045,-0.0073 -0.7614186,-0.187922 -0.081076,-0.09874 -0.067973,-0.19503 -0.063843,-0.319284 0.02545,-0.139017 0.094571,-0.196179 0.2028061,-0.277709 0.949067,-0.499932 2.2245214,0.141711 2.9818493,0.731145 z"
     fill="#240230"
     id="path6"
     style="stroke:none;stroke-width:0.0379375" /><path
     d="m 17.705535,11.227318 c 0.09678,0.07953 0.125003,0.108121 0.141248,0.231599 0.01023,0.243399 0.01023,0.243399 -0.08744,0.361969 -0.280801,0.153422 -0.546467,0.14696 -0.8586,0.151395 -0.843719,0.02492 -1.628298,0.305786 -2.28336,0.869925 0.01235,0.02538 0.02471,0.05075 0.03743,0.0769 -0.02485,0.0089 -0.0497,0.01774 -0.0753,0.02688 -0.256667,0.09738 -0.412053,0.192262 -0.556364,0.439319 -0.1012,0.14064 -0.17888,0.177741 -0.341568,0.225892 -0.145049,-0.0072 -0.145049,-0.0072 -0.262025,-0.03845 -0.05284,-0.108549 -0.04728,-0.18724 -0.03743,-0.307598 0.04971,-0.08906 0.04971,-0.08906 0.121654,-0.175427 0.0275,-0.03306 0.05501,-0.06612 0.08334,-0.100179 0.03117,-0.03593 0.06234,-0.07187 0.09446,-0.108891 0.01644,-0.01941 0.03288,-0.03882 0.04982,-0.05882 0.8138,-0.95927 2.662702,-2.455295 3.97413,-1.594518 z"
     fill="#2d0938"
     id="path7"
     style="stroke:none;stroke-width:0.0379375" /><path
     d="m 9.3267334,11.920014 c 0.1061734,0.08725 0.2095154,0.176973 0.3121781,0.268547 0.01921,0.0171 0.038421,0.0342 0.058214,0.05182 0.8968025,0.804879 0.8968025,0.804879 0.9243795,1.137721 -0.0094,0.117753 -0.0094,0.117753 -0.04679,0.192249 -0.123598,0.06745 -0.24441,0.03681 -0.374322,0.0024 -0.132907,-0.06529 -0.17943,-0.103438 -0.262024,-0.230698 0,-0.03806 0,-0.07613 0,-0.115349 -0.024705,0 -0.04941,0 -0.074864,0 C 9.836484,13.197364 9.809462,13.168024 9.781622,13.137784 9.6814749,13.027417 9.6814749,13.027417 9.5453312,12.976781 9.3998368,12.912731 9.3384586,12.841184 9.2271581,12.726857 8.5453518,12.207945 7.8075882,11.979519 6.9673577,11.973793 c -0.5570991,-0.0073 -0.5570991,-0.0073 -0.7614368,-0.187931 -0.081076,-0.09874 -0.067973,-0.19503 -0.063843,-0.319284 0.02545,-0.139017 0.094571,-0.196179 0.2028061,-0.277709 0.949067,-0.499932 2.2245214,0.141711 2.9818494,0.731145 z"
     fill="#2d0938"
     id="path8"
     style="stroke:none;stroke-width:0.0379375" /></svg>
