<?xml version="1.0" encoding="UTF-8" standalone="no"?>

<svg
   width="32"
   height="32"
   viewBox="0 0 32 32"
   version="1.1"
   id="svg1"
   sodipodi:docname="not_taken_on_camera.svg"
   inkscape:version="1.4.4 (dcaf3e7d9e, 2026-05-05)"
   xmlns:inkscape="http://www.inkscape.org/namespaces/inkscape"
   xmlns:sodipodi="http://sodipodi.sourceforge.net/DTD/sodipodi-0.dtd"
   xmlns="http://www.w3.org/2000/svg"
   xmlns:svg="http://www.w3.org/2000/svg"
   xmlns:rdf="http://www.w3.org/1999/02/22-rdf-syntax-ns#"
   xmlns:cc="http://creativecommons.org/ns#">
  <defs
     id="defs1" />
  <g
     inkscape:label="Ebene 1"
     inkscape:groupmode="layer"
     id="layer1">
    <g
       id="g9"
       transform="matrix(0.3677696,0,0,0.3677696,4.2313728,4.2313728)">
      <g
         id="g1">
        <path
           d="M 52.38,55.26 H 11.62 c -6.002,0 -10,-1.296 -10,-7.62 V 23.6 c 0,-4.231 1.798,-6.51 5.8,-7.29 l 8.83,-0.331 h 5.641 L 24.211,8.74 H 39.79 l 2.32,7.239 h 10.27 c 6.002,0 10,1.296 10,7.62 v 24.04 c 0,6.325 -3.998,7.621 -10,7.621 z M 9.42,18.036 8.552,18.151 C 4.911,18.635 3.62,20.061 3.62,23.6 v 24.04 c 0,3.728 1.237,5.62 8,5.62 h 40.76 c 6.763,0 8,-1.893 8,-5.62 V 23.6 c 0,-3.728 -1.237,-5.62 -8,-5.62 H 40.65 L 38.33,10.741 H 25.669 l -2.32,7.239 h -9.1 z M 32,51.37 c -8.133,0 -14.75,-6.617 -14.75,-14.75 0,-8.133 6.617,-14.75 14.75,-14.75 8.133,0 14.75,6.617 14.75,14.75 0,8.133 -6.617,14.75 -14.75,14.75 z m 0,-27.5 c -7.03,0 -12.75,5.72 -12.75,12.75 0,7.03 5.72,12.75 12.75,12.75 7.03,0 12.75,-5.72 12.75,-12.75 0,-7.03 -5.72,-12.75 -12.75,-12.75 z"
           id="path1"
           sodipodi:nodetypes="ssssccccccssssccsssssssccccccssssssssss" />
      </g>
      <g
         id="g3">
        <path
           d="m 32,51.37 c -8.133,0 -14.75,-6.617 -14.75,-14.75 0,-8.133 6.617,-14.75 14.75,-14.75 8.133,0 14.75,6.617 14.75,14.75 0,8.133 -6.617,14.75 -14.75,14.75 z m 0,-27.5 c -7.03,0 -12.75,5.72 -12.75,12.75 0,7.03 5.72,12.75 12.75,12.75 7.03,0 12.75,-5.72 12.75,-12.75 0,-7.03 -5.72,-12.75 -12.75,-12.75 z"
           id="path3" />
      </g>
      <g
         id="g5">
        <path
           d="m 32,51.37 c -8.133,0 -14.75,-6.617 -14.75,-14.75 0,-8.133 6.617,-14.75 14.75,-14.75 8.133,0 14.75,6.617 14.75,14.75 0,8.133 -6.617,14.75 -14.75,14.75 z m 0,-27.5 c -7.03,0 -12.75,5.72 -12.75,12.75 0,7.03 5.72,12.75 12.75,12.75 7.03,0 12.75,-5.72 12.75,-12.75 0,-7.03 -5.72,-12.75 -12.75,-12.75 z"
           id="path5" />
      </g>
      <g
         id="g6">
        <path
           d="m 32,45.212 c -4.841,0 -8.78,-3.938 -8.78,-8.779 0,-4.841 3.939,-8.78 8.78,-8.78 4.841,0 8.78,3.939 8.78,8.78 0,4.84 -3.939,8.779 -8.78,8.779 z m 0,-15.56 c -3.739,0 -6.78,3.042 -6.78,6.78 0,3.738 3.042,6.779 6.78,6.779 3.738,0 6.78,-3.041 6.78,-6.779 0,-3.738 -3.041,-6.78 -6.78,-6.78 z"
           id="path6" />
      </g>
      <g
         id="g7">
        <path
           d="M 56.917,27.568 H 46.333 v -6.73 h 10.583 v 6.73 z m -8.584,-2 h 6.583 v -2.73 h -6.583 z"
           id="path7" />
      </g>
      <g
         id="g8">
        <path
           d="m 11.583,25.256 c -1.522,0 -2.761,-1.238 -2.761,-2.761 0,-1.523 1.238,-2.761 2.761,-2.761 1.523,0 2.761,1.238 2.761,2.761 0,1.523 -1.238,2.761 -2.761,2.761 z m 0,-3.522 c -0.419,0 -0.761,0.341 -0.761,0.761 0,0.42 0.341,0.761 0.761,0.761 0.42,0 0.761,-0.341 0.761,-0.761 0,-0.42 -0.341,-0.761 -0.761,-0.761 z"
           id="path8" />
      </g>
    </g>
    <path
       id="path2"
       style="baseline-shift:baseline;display:inline;overflow:visible;opacity:1;vector-effect:none;fill:#800000;stroke-width:1.33333;stroke-linecap:round;stroke-linejoin:round;enable-background:accumulate;stop-color:#000000;stop-opacity:1"
       d="M 16,0 C 7.1845033,0 0,7.1845033 0,16 0,24.815497 7.1845033,32 16,32 24.815497,32 32,24.815497 32,16 32,7.1845033 24.815497,0 16,0 Z m 0,3.5546875 c 6.893936,0 12.445312,5.5513758 12.445312,12.4453125 0,2.722229 -0.866487,5.234232 -2.338541,7.278645 L 8.7213541,5.8932292 C 10.765768,4.4211743 13.27777,3.5546875 16,3.5546875 Z M 5.8932292,8.7213541 23.278645,26.106771 C 21.234232,27.578825 18.722229,28.445312 16,28.445312 9.1060633,28.445312 3.5546875,22.893936 3.5546875,16 c 0,-2.72223 0.8664868,-5.234232 2.3385417,-7.2786459 z" />
    <g
       id="path4"
       style="opacity:1"
       transform="scale(1.3333333)">
      <path
         style="baseline-shift:baseline;display:inline;overflow:visible;vector-effect:none;fill:#aa0000;stroke-linecap:round;stroke-linejoin:round;enable-background:accumulate;stop-color:#000000;stop-opacity:1"
         d="M 5,5 19,19"
         id="path9" />
    </g>
  </g>
</svg>
