<?xml version="1.0" encoding="UTF-8" standalone="no"?>
<svg
   width="24"
   height="24"
   viewBox="0 0 24 24"
   version="1.1"
   id="svg1"
   sodipodi:docname="profile_nsfw_pics.svg"
   inkscape:version="1.4.3 (0d15f75042, 2025-12-25)"
   xmlns:inkscape="http://www.inkscape.org/namespaces/inkscape"
   xmlns:sodipodi="http://sodipodi.sourceforge.net/DTD/sodipodi-0.dtd"
   xmlns="http://www.w3.org/2000/svg"
   xmlns:svg="http://www.w3.org/2000/svg">
  <defs
     id="defs1" />
  <sodipodi:namedview
     id="namedview1"
     pagecolor="#ffffff"
     bordercolor="#000000"
     borderopacity="0.25"
     inkscape:showpageshadow="2"
     inkscape:pageopacity="0.0"
     inkscape:pagecheckerboard="0"
     inkscape:deskcolor="#d1d1d1"
     showgrid="true"
     inkscape:zoom="23.540763"
     inkscape:cx="6.9878788"
     inkscape:cy="10.258801"
     inkscape:window-width="1920"
     inkscape:window-height="1008"
     inkscape:window-x="0"
     inkscape:window-y="0"
     inkscape:window-maximized="1"
     inkscape:current-layer="svg1">
    <inkscape:grid
       id="grid1"
       units="px"
       originx="0"
       originy="0"
       spacingx="1"
       spacingy="1"
       empcolor="#0099e5"
       empopacity="0.30196078"
       color="#0099e5"
       opacity="0.14901961"
       empspacing="5"
       enabled="true"
       visible="true" />
  </sodipodi:namedview>
  <rect
     style="fill:none;fill-opacity:1;stroke:#000000;stroke-width:2.03334;stroke-linecap:round;stroke-linejoin:round"
     id="rect1"
     width="21.966665"
     height="21.966665"
     x="1.01667"
     y="1.01667"
     rx="3.820544"
     ry="3.8951194" />
  <path
     d="m 21.002922,4.9651034 c 0.02366,0.015109 0.04732,0.030217 0.07168,0.045782 0.08148,0.059778 0.134833,0.1126037 0.157654,0.216583 0.005,0.1111594 -0.0044,0.2022401 -0.05407,0.3011033 -0.111346,0.060816 -0.198083,0.070463 -0.317252,0.037565 -0.102766,-0.061416 -0.19936,-0.1297222 -0.297279,-0.1994149 -0.225104,-0.153494 -0.471316,-0.1691212 -0.73212,-0.1386662 -0.729539,0.203107 -1.24587,0.9250056 -1.668345,1.5401465 0.02567,0.021499 0.05134,0.042999 0.07779,0.065151 0.252182,0.2152804 0.494402,0.4310057 0.667643,0.7237043 0.01697,0.028379 0.03396,0.056749 0.05145,0.085988 0.196205,0.3694901 0.278469,0.7851119 0.381279,1.1915182 0.03918,0.1532409 0.08054,0.3056123 0.124134,0.457507 0.01258,0.044699 0.02517,0.089388 0.03814,0.1354373 0.06707,0.1838068 0.158013,0.3662144 0.327929,0.458551 0.0531,0.0068 0.106389,0.012185 0.159734,0.016428 0.11181,0.010127 0.154469,0.017461 0.250696,0.084515 0.06892,0.1173521 0.07419,0.1760611 0.05103,0.3122561 -0.190575,0.315957 -0.559686,0.548635 -0.887419,0.67616 -0.118807,0.02325 -0.234458,0.03276 -0.354966,0.03756 -0.0038,0.02509 -0.0075,0.05018 -0.01147,0.07603 -0.233802,1.460812 -1.021414,2.788122 -1.905348,3.905813 -0.01549,0.01985 -0.03099,0.03968 -0.04695,0.06013 -0.363725,0.465156 -0.757151,0.904655 -1.19543,1.292197 -0.03162,0.0293 -0.06324,0.0586 -0.09581,0.08878 C 13.59847,18.461619 10.528227,19.898324 7.5770195,19.71769 6.2117061,19.616805 4.9146555,19.112042 4,18 3.5390227,17.407033 3.0345231,16.504057 3.0304958,15.715607 c -5.582e-4,-0.02737 -0.0012,-0.05471 -0.0018,-0.08291 0.017009,-0.09813 0.043388,-0.128743 0.1193857,-0.18709 0.1168808,-0.04699 0.1658966,-0.04229 0.2835576,0.0058 0.038941,0.02213 0.077879,0.04427 0.1179989,0.06706 0.044552,0.02465 0.089109,0.04931 0.1336665,0.07395 0.046415,0.0262 0.09282,0.05241 0.1392145,0.07865 1.3302477,0.745707 2.7935514,1.149863 4.27444,0.694357 0.2534253,-0.08354 0.4923604,-0.19569 0.7305947,-0.318711 0.051753,-0.02658 0.051753,-0.02658 0.1045487,-0.05371 0.4139834,-0.226076 0.7759765,-0.52657 1.1123226,-0.865012 0.06826,-0.06758 0.135989,-0.130935 0.208127,-0.193399 0.08006,-0.07105 0.147373,-0.137619 0.214505,-0.221424 0.03144,-0.03923 0.03144,-0.03923 0.0635,-0.07924 0.02369,-0.02963 0.04741,-0.05927 0.07183,-0.0898 0.0281,-0.0335 0.05618,-0.06701 0.08514,-0.10154 0.923709,-1.110261 1.554669,-2.45611 2.169396,-3.772578 0.07917,-0.169401 0.158546,-0.338692 0.237958,-0.507964 0.04074,-0.08699 0.08137,-0.1740272 0.121916,-0.261119 0.219628,-0.4716379 0.436517,-0.9358457 0.722295,-1.3671564 -0.113548,-0.096619 -0.228173,-0.1910822 -0.344609,-0.2837187 -0.516334,-0.413331 -0.516334,-0.413331 -0.58275,-0.6437055 0.0044,-0.1244327 0.0044,-0.1244327 0.04215,-0.2136487 0.09355,-0.083036 0.160641,-0.088546 0.281755,-0.098607 0.100251,0.034779 0.100251,0.034779 0.201887,0.086868 0.368412,0.1727951 0.741212,0.2460344 1.126327,0.089068 0.289702,-0.1440949 0.524631,-0.3300564 0.766092,-0.5515828 0.430081,-0.3795224 0.800254,-0.6817591 1.384371,-0.6385972 0.286137,0.049379 0.551925,0.1384782 0.816424,0.2629519 0.154558,-0.1991512 0.308729,-0.3984326 0.459239,-0.6010327 0.440642,-0.5801316 0.999417,-1.1932894 1.733795,-1.3068354 0.439328,-0.0442 0.807727,0.082038 1.179156,0.3301572 z m -5.218015,2.3665669 c -0.39303,0.3519555 -0.790826,0.6654813 -1.313377,0.7512905 0,0.024792 0,0.049585 0,0.075124 0.479957,0.1885243 0.943032,0.2622515 1.453422,0.2114472 0.0239,-0.00226 0.04778,-0.00461 0.0724,-0.00703 0.06829,-0.00694 0.136473,-0.01497 0.204644,-0.023082 0.115363,0.00642 0.115363,0.00642 0.200778,0.063541 0.0751,0.1236796 0.07798,0.230068 0.07433,0.3725651 -4e-4,0.026539 -7.98e-4,0.053076 -0.0013,0.080422 -0.01347,0.3923827 -0.139385,0.7376417 -0.335996,1.0676462 0.413806,0.034189 0.717469,-0.1044427 1.044657,-0.3668396 0.09115,-0.083851 0.166847,-0.1715296 0.244317,-0.2694091 0.117455,-0.1476838 0.117455,-0.1476838 0.246258,-0.1948661 0.08913,0.00423 0.156505,0.00896 0.239603,0.042253 0.02567,0.07634 0.05067,0.1530058 0.07251,0.2306696 0.129988,0.4109922 0.343929,0.8491619 0.707577,1.0744039 0.186393,0.08206 0.364875,0.08243 0.556161,0.01335 0.07695,-0.03604 0.151606,-0.07399 0.225597,-0.116362 -0.02489,-0.02402 -0.04978,-0.04804 -0.07542,-0.07277 -0.32683,-0.3527143 -0.437239,-0.788839 -0.5513,-1.2542996 -0.01569,-0.063591 -0.01569,-0.063591 -0.0317,-0.1284773 C 18.797631,8.7973303 18.777616,8.7132819 18.758163,8.629094 18.631208,8.1038222 18.409893,7.6239847 17.965752,7.3245972 17.158556,6.8569687 16.530311,6.6506321 15.784923,7.3316235 Z M 14.41064,8.8112416 c -0.159409,0.1991014 -0.281494,0.4051096 -0.396131,0.6357821 -0.01926,0.038142 -0.03851,0.076292 -0.05836,0.1155906 -0.257028,0.5152757 -0.492734,1.0420827 -0.731434,1.5670357 -0.638606,1.403989 -1.370073,2.768931 -2.367204,3.924909 -0.0963,0.112281 -0.189809,0.227018 -0.283004,0.342189 -0.9468733,1.040912 -2.2284055,1.68513 -3.5927929,1.739269 -1.0867575,0.0119 -2.1394607,-0.296573 -3.1045744,-0.817615 -0.084068,-0.05184 -0.084068,-0.05184 -0.1611218,-0.04637 0.067184,0.499643 0.3879839,0.964693 0.6744375,1.352323 0.019767,0.02697 0.039534,0.05394 0.059901,0.08173 0.6716013,0.871024 1.7982557,1.323169 2.8253851,1.446803 0.7495542,0.06596 1.5225432,0.0468 2.2617362,-0.101084 0.035104,-0.0066 0.070201,-0.01333 0.1063682,-0.0202 0.9754861,-0.189727 1.9514801,-0.526668 2.8398581,-0.994049 0.04786,-0.0244 0.09574,-0.04877 0.14365,-0.07307 0.142747,-0.0732 0.283736,-0.149665 0.424298,-0.227443 0.02688,-0.0148 0.05376,-0.02959 0.08144,-0.04482 0.635218,-0.35215 1.235663,-0.763686 1.799882,-1.232367 0.04303,-0.03537 0.04303,-0.03537 0.08693,-0.07146 0.09026,-0.07522 0.179254,-0.151876 0.268027,-0.229055 0.03469,-0.02968 0.06937,-0.05936 0.105105,-0.08995 0.278889,-0.242997 0.537461,-0.506906 0.793406,-0.776382 0.03261,-0.03417 0.06523,-0.06834 0.09883,-0.103542 0.21505,-0.228605 0.411226,-0.467394 0.600012,-0.72053 0.01731,-0.02284 0.0346,-0.04568 0.05244,-0.06919 0.751488,-0.995142 1.40471,-2.192806 1.615906,-3.461872 -0.02274,-0.01279 -0.04549,-0.02557 -0.06891,-0.03874 -0.423211,-0.250964 -0.618927,-0.617406 -0.854001,-1.0506335 -0.0172,0.014089 -0.0344,0.028178 -0.05213,0.042693 -0.362009,0.2924795 -0.722753,0.5216855 -1.190249,0.5583315 -0.02439,0.002 -0.04878,0.004 -0.0739,0.0059 -0.195866,0.0083 -0.381797,-0.01859 -0.573909,-0.05517 -0.02391,-0.0044 -0.04781,-0.0089 -0.07244,-0.01339 -0.15301,-0.0313 -0.28227,-0.07691 -0.415638,-0.162693 -0.04215,-0.107998 -0.04215,-0.107998 -0.0355,-0.2253874 0.08928,-0.1249478 0.191763,-0.1986352 0.317252,-0.277037 0.268542,-0.1737294 0.37479,-0.3653686 0.451335,-0.6862875 0.02057,-0.089003 0.02057,-0.089003 -0.02315,-0.1636115 -0.02069,6.095e-4 -0.04136,0.00125 -0.06267,0.00183 -0.402895,0.00993 -0.781436,0.00385 -1.175552,-0.089831 -0.166253,-0.042612 -0.166253,-0.042612 -0.313526,0.027468 z"
     fill="#000000"
     id="path1-2"
     style="stroke-width:0.036516" />
  <path
     d="m 12.128746,15.145096 c 0.0542,0.11473 0.05791,0.214445 0.0355,0.338081 -0.12045,0.269939 -0.29199,0.483693 -0.492517,0.690248 -0.02637,0.02743 -0.05277,0.05488 -0.07995,0.08314 -0.860781,0.878433 -2.1918217,1.78549 -3.4223023,1.795964 -0.1018573,-0.01745 -0.1326991,-0.04139 -0.1938453,-0.127661 -0.031059,-0.08921 -0.031059,-0.08921 -0.035494,-0.187822 0.040522,-0.08577 0.077741,-0.157401 0.1419867,-0.225389 0.067049,-0.0111 0.1341349,-0.02199 0.2013584,-0.03183 0.8127041,-0.122387 1.5912309,-0.543935 2.2479155,-1.05754 0.03725,-0.0288 0.07449,-0.05763 0.112868,-0.08731 0.396606,-0.311872 0.75441,-0.63298 1.023025,-1.077194 0.0966,-0.145207 0.0966,-0.145207 0.170829,-0.183126 0.109731,-0.0066 0.190202,0.02556 0.29063,0.07044 z"
     fill="#000000"
     id="path2"
     style="stroke-width:0.036516" />
</svg>
