<?xml version="1.0" encoding="UTF-8" standalone="no"?>
<!-- Created with Inkscape (http://www.inkscape.org/) -->

<svg
   width="24"
   height="24"
   viewBox="0 0 24 24"
   version="1.1"
   id="svg1"
   sodipodi:docname="tribes.svg"
   inkscape:version="1.4.3 (0d15f75, 2025-12-25)"
   xmlns:inkscape="http://www.inkscape.org/namespaces/inkscape"
   xmlns:sodipodi="http://sodipodi.sourceforge.net/DTD/sodipodi-0.dtd"
   xmlns="http://www.w3.org/2000/svg"
   xmlns:svg="http://www.w3.org/2000/svg">
  <sodipodi:namedview
     id="namedview1"
     pagecolor="#ffffff"
     bordercolor="#666666"
     borderopacity="1.0"
     inkscape:showpageshadow="2"
     inkscape:pageopacity="0.0"
     inkscape:pagecheckerboard="false"
     inkscape:deskcolor="#d1d1d1"
     inkscape:document-units="px"
     showgrid="true"
     inkscape:zoom="22.8"
     inkscape:cx="12.631579"
     inkscape:cy="13.79386"
     inkscape:window-width="1440"
     inkscape:window-height="842"
     inkscape:window-x="0"
     inkscape:window-y="30"
     inkscape:window-maximized="0"
     inkscape:current-layer="g4">
    <inkscape:grid
       id="grid1"
       units="px"
       originx="0"
       originy="0"
       spacingx="1"
       spacingy="1"
       empcolor="#0099e5"
       empopacity="0.30196078"
       color="#0099e5"
       opacity="0.14901961"
       empspacing="5"
       enabled="true"
       visible="true" />
  </sodipodi:namedview>
  <defs
     id="defs1" />
  <g
     id="g4">
    <path
       id="path1"
       style="stroke-width:25"
       d="m 11.845703,3.0761719 c -1.421925,0 -2.6711309,0.7383224 -3.3867186,1.8515625 C 7.9770992,4.6426286 7.414785,4.4785156 6.8144531,4.4785156 c -1.786442,0 -3.234375,1.4479331 -3.234375,3.234375 0,1.7864422 1.447933,3.2343754 3.234375,3.2343754 0.8417783,0 1.7196108,-0.364333 2.3007813,-0.892578 1.5704626,1.452985 4.0237146,1.421174 5.5507816,-0.08984 0.579876,0.555887 1.369342,0.898437 2.238281,0.898437 1.786442,0 3.234375,-1.4479325 3.234375,-3.2343748 0,-1.7864418 -1.447933,-3.234375 -3.234375,-3.234375 -0.624685,0 -1.208536,0.1775133 -1.703125,0.484375 C 14.470289,3.7867508 13.24045,3.0761719 11.845703,3.0761719 Z m 0.002,1.4589843 h 0.002 c 1.41397,0.00107 2.560547,1.1482814 2.560547,2.5625 0,1.414875 -1.147623,2.5624998 -2.5625,2.5624998 -1.414877,0 -2.5624998,-1.1476248 -2.5624998,-2.5624998 0.00178,-1.4136339 1.1485308,-2.5596804 2.5624998,-2.5625 z m 5.044922,1.3222657 h 0.01758 c 0.981871,0 1.777344,0.7954729 1.777344,1.7773437 0,0.9818688 -0.795473,1.7773438 -1.777344,1.7773438 -0.563492,0 -1.065288,-0.26286 -1.390625,-0.671875 l -0.0039,-0.00195 c 0.225865,-0.480402 0.357422,-1.0447528 0.357422,-1.6386718 0,-0.2885449 -0.03066,-0.5706493 -0.08984,-0.8417969 v -0.00195 C 16.08273,6.0085436 16.46974,5.8597625 16.892578,5.8574219 Z M 6.8085938,5.9414062 h 0.017578 c 0.4061864,0.00225 0.7798906,0.1409389 1.0742187,0.3710938 -0.050587,0.2547917 -0.078125,0.5174727 -0.078125,0.7871094 0,0.4156809 0.062606,0.8180915 0.1796875,1.1953125 0.054118,0.1844742 0.1228104,0.3606732 0.2011719,0.5273437 l -0.00391,0.00391 c -0.3253371,0.409015 -0.827133,0.6699219 -1.390625,0.6699219 -0.981871,0 -1.7792969,-0.795475 -1.7792969,-1.7773438 0,-0.9818708 0.7974259,-1.7773438 1.7792969,-1.7773438 z"
       sodipodi:nodetypes="scsssccssscscssscccsssccscccsccscccsss" />
    <path
       d="m 11.845703,11.298486 h 0.002 m 5.066406,0.441444 c -1.009946,0 -1.959509,0.394702 -2.783203,1.085952 -0.680155,-0.360103 -1.463658,-0.572715 -2.279297,-0.579764 h -0.002 c -0.83338,0.0054 -1.634804,0.219609 -2.380859,0.609193 -0.796063,-0.632035 -1.7014797,-0.988833 -2.6640625,-0.988833 -2.733788,0 -5.0205081,2.887945 -5.5957031,6.807063 h -0.00391 c -0.011012,0.07636 -0.015625,0.157082 -0.015625,0.238379 0,0.521474 0.240196,0.956933 0.5683594,1.071239 l 0.00586,0.0031 c 0.050289,0.01631 0.1041339,0.0265 0.1582031,0.0265 0.34816,0 0.6385806,-0.370018 0.7128906,-0.868175 l 0.00586,-0.04119 c 0.416623,-2.87784 2.1152626,-5.032459 4.1503906,-5.032459 0.3159677,0 0.624454,0.05166 0.9023438,0.1442 -1.4823296,1.547098 -2.569045,3.893106 -2.9863282,6.624601 l -0.00977,0.07358 c -0.010535,0.07052 -0.015625,0.154617 -0.015625,0.23838 0,0.609249 0.3261352,1.100667 0.7304688,1.100667 0.3487453,0 0.6411155,-0.367358 0.7148437,-0.859344 l 0.00195,-0.0058 c 0.5968479,-3.994941 2.9301536,-6.93361 5.7207028,-6.93361 2.790547,0 5.125605,2.938883 5.714844,6.874753 l 0.0078,0.05886 c 0.07431,0.499037 0.366098,0.86523 0.714843,0.86523 0.403748,0 0.730469,-0.491418 0.730469,-1.100666 2.3e-5,-0.08385 -0.0059,-0.165883 -0.01756,-0.244351 -0.437145,-2.846782 -1.560634,-5.215488 -3.087891,-6.742319 l -0.02734,-0.0265 c 0.312468,-0.124311 0.671203,-0.194235 1.041015,-0.194235 2.035128,0 3.735721,2.154621 4.152344,5.03246 l 0.0059,0.04119 c 0.07431,0.498155 0.364731,0.865228 0.712891,0.865228 0.05618,0 0.110031,-0.0089 0.162109,-0.0265 0.329033,-0.113384 0.570313,-0.548863 0.570313,-1.071236 0,-0.08129 -0.0066,-0.162018 -0.01758,-0.238379 h -0.002 C 21.934566,14.627997 19.647845,11.74005 16.914057,11.74005 Z m 5.597657,6.807064 h 0.002 l -0.002,-0.0058 c 3.43e-4,0.0023 -3.34e-4,0.0037 0,0.0058 z"
       style="stroke-width:25"
       id="path1-6" />
  </g>
</svg>
