<?xml version="1.0" encoding="UTF-8" standalone="no"?>
<!-- Created with Inkscape (http://www.inkscape.org/) -->

<svg
   width="24"
   height="24"
   viewBox="0 0 24 24"
   version="1.1"
   id="svg1"
   sodipodi:docname="ethnicity.svg"
   inkscape:version="1.4.3 (0d15f75, 2025-12-25)"
   xmlns:inkscape="http://www.inkscape.org/namespaces/inkscape"
   xmlns:sodipodi="http://sodipodi.sourceforge.net/DTD/sodipodi-0.dtd"
   xmlns="http://www.w3.org/2000/svg"
   xmlns:svg="http://www.w3.org/2000/svg">
  <sodipodi:namedview
     id="namedview1"
     pagecolor="#ffffff"
     bordercolor="#666666"
     borderopacity="1.0"
     inkscape:showpageshadow="2"
     inkscape:pageopacity="0.0"
     inkscape:pagecheckerboard="false"
     inkscape:deskcolor="#d1d1d1"
     inkscape:document-units="px"
     showgrid="true"
     inkscape:zoom="24.42"
     inkscape:cx="13.533989"
     inkscape:cy="11.691237"
     inkscape:window-width="1440"
     inkscape:window-height="842"
     inkscape:window-x="0"
     inkscape:window-y="30"
     inkscape:window-maximized="0"
     inkscape:current-layer="svg1">
    <inkscape:grid
       id="grid1"
       units="px"
       originx="0"
       originy="0"
       spacingx="1"
       spacingy="1"
       empcolor="#0099e5"
       empopacity="0.30196078"
       color="#0099e5"
       opacity="0.14901961"
       empspacing="5"
       enabled="true"
       visible="true" />
  </sodipodi:namedview>
  <defs
     id="defs1" />
  <path
     style="fill:#808080;fill-opacity:1;stroke:none;stroke-width:3.77952;stroke-linecap:square;stroke-linejoin:miter"
     d="M 10.389579,16.577704 C 7.9204782,16.298648 5.8257424,14.593115 4.9838401,12.176356 4.7152798,11.405429 4.651108,10.980254 4.6511151,9.9718704 4.6511205,9.1996391 4.6657,8.9970156 4.7477077,8.6294147 5.0559594,7.2476829 5.6502516,6.1458847 6.5964625,5.2018844 7.8452652,3.9559987 9.3638376,3.317646 11.080119,3.3171177 c 1.250807,-3.849e-4 2.38601,0.3453175 3.452543,1.0513997 0.564644,0.3738141 1.404893,1.2057239 1.783378,1.7656757 1.587446,2.3485646 1.586816,5.3465369 -0.0016,7.6738609 -0.504795,0.739612 -1.28442,1.469136 -2.067475,1.934617 -1.122067,0.667002 -2.570252,0.980502 -3.857373,0.835033 z"
     id="path4" />
  <path
     d="m 21.023873,9.938437 c 0,-3.6075481 -1.844164,-6.8806081 -4.931697,-8.7548367 -0.316313,-0.1922111 -0.722812,-0.082767 -0.907826,0.2428288 -0.185012,0.325596 -0.08024,0.7449034 0.235412,0.9364304 2.678382,1.6252435 4.277187,4.4571072 4.277187,7.5748935 0,5.180806 -3.645888,8.941575 -8.668434,8.941575 -1.1233422,0 -2.2128643,-0.216836 -3.2393896,-0.644351 -0.3388595,-0.142278 -0.7267904,0.02736 -0.8633953,0.377581 -0.1366049,0.350222 0.026525,0.749692 0.3660478,0.890601 1.1856765,0.49455 2.4429708,0.744903 3.7367371,0.744903 0.004,0 0.008,0 0.01194,0 v 1.346847 H 9.1147222 c -0.3826262,0 -0.692971,0.305758 -0.692971,0.682656 0,0.376897 0.3103448,0.682657 0.692971,0.682657 h 5.2400528 c 0.382626,0 0.692971,-0.30576 0.692971,-0.682657 0,-0.376898 -0.310345,-0.682656 -0.692971,-0.682656 h -1.997348 v -1.427561 c 5.093502,-0.61015 8.666446,-4.721825 8.666446,-10.227543 z m -2.69695,0.06156 c 0,-4.1609248 -3.269231,-7.5543731 -7.302387,-7.5543731 -4.0344825,0 -7.304376,3.3934483 -7.304376,7.5543731 0,4.160924 3.2698935,7.511963 7.304376,7.511963 4.03382,0 7.302387,-3.351039 7.302387,-7.511963 z m -13.2805035,0 c 0,-3.3996018 2.6816976,-6.18632 5.9774535,-6.18632 C 14.319628,3.813677 17,6.6003952 17,10 c 0,3.399604 -2.681034,6.143912 -5.976127,6.143912 -3.2964187,0 -5.9774535,-2.744308 -5.9774535,-6.143912 z"
     id="path1"
     style="stroke-width:25" />
</svg>
